
<svg width="76" height="76" viewBox="0 0 76 76" fill="none" xmlns="http://www.w3.org/2000/svg">
<g filter="url(#filter0_dd_678_19067)">
<rect x="24" y="20" width="28" height="28" rx="14" fill="#0D236E"/>
<path d="M39.0475 27L32.2058 34.2417C31.9475 34.5167 31.6975 35.0584 31.6475 35.4334L31.3392 38.1333C31.2308 39.1083 31.9308 39.775 32.8975 39.6084L35.5808 39.15C35.9558 39.0834 36.4808 38.8084 36.7392 38.525L43.5809 31.2834C44.7642 30.0334 45.2975 28.6084 43.4558 26.8667C41.6225 25.1417 40.2308 25.75 39.0475 27Z" stroke="white" stroke-width="1.5" stroke-miterlimit="10" stroke-linecap="round" stroke-linejoin="round"/>
<path d="M37.9062 28.207C38.2646 30.507 40.1312 32.2654 42.4479 32.4987" stroke="white" stroke-width="1.5" stroke-miterlimit="10" stroke-linecap="round" stroke-linejoin="round"/>
<path d="M30.5 42.332H45.5" stroke="white" stroke-width="1.5" stroke-miterlimit="10" stroke-linecap="round" stroke-linejoin="round"/>
</g>
<defs>
<filter id="filter0_dd_678_19067" x="0" y="0" width="76" height="76" filterUnits="userSpaceOnUse" color-interpolation-filters="sRGB">
<feFlood flood-opacity="0" result="BackgroundImageFix"/>
<feColorMatrix in="SourceAlpha" type="matrix" values="0 0 0 0 0 0 0 0 0 0 0 0 0 0 0 0 0 0 127 0" result="hardAlpha"/>
<feOffset dy="4"/>
<feGaussianBlur stdDeviation="12"/>
<feComposite in2="hardAlpha" operator="out"/>
<feColorMatrix type="matrix" values="0 0 0 0 0 0 0 0 0 0 0 0 0 0 0 0 0 0 0.04 0"/>
<feBlend mode="normal" in2="BackgroundImageFix" result="effect1_dropShadow_678_19067"/>
<feColorMatrix in="SourceAlpha" type="matrix" values="0 0 0 0 0 0 0 0 0 0 0 0 0 0 0 0 0 0 127 0" result="hardAlpha"/>
<feOffset dx="4"/>
<feGaussianBlur stdDeviation="10"/>
<feComposite in2="hardAlpha" operator="out"/>
<feColorMatrix type="matrix" values="0 0 0 0 0 0 0 0 0 0 0 0 0 0 0 0 0 0 0.04 0"/>
<feBlend mode="normal" in2="effect1_dropShadow_678_19067" result="effect2_dropShadow_678_19067"/>
<feBlend mode="normal" in="SourceGraphic" in2="effect2_dropShadow_678_19067" result="shape"/>
</filter>
</defs>
</svg>
