<svg xmlns="http://www.w3.org/2000/svg" width="64" height="64" viewBox="0 0 64 64" fill="none">
  <path d="M0 32C0 49.6731 14.3269 64 32 64C49.6731 64 64 49.6731 64 32C64 14.3269 49.6731 0 32 0C14.3269 0 0 14.3269 0 32Z" fill="#F00073"/>
  <path d="M32.0004 18.3999C36.4004 18.3999 37.0004 18.3999 38.8004 18.3999C40.4004 18.3999 41.2004 18.7999 41.8004 18.9999C42.6004 19.3999 43.2004 19.5999 43.8004 20.1999C44.4004 20.7999 44.8004 21.3999 45.0004 22.1999C45.2004 22.7999 45.4004 23.5999 45.6004 25.1999C45.6004 26.9999 45.6004 27.3999 45.6004 31.9999C45.6004 36.5999 45.6004 36.9999 45.6004 38.7999C45.6004 40.3999 45.2004 41.1999 45.0004 41.7999C44.6004 42.5999 44.4004 43.1999 43.8004 43.7999C43.2004 44.3999 42.6004 44.7999 41.8004 44.9999C41.2004 45.1999 40.4004 45.3999 38.8004 45.5999C37.0004 45.5999 36.6004 45.5999 32.0004 45.5999C27.4004 45.5999 27.0004 45.5999 25.2004 45.5999C23.6004 45.5999 22.8004 45.1999 22.2004 44.9999C21.4004 44.5999 20.8004 44.3999 20.2004 43.7999C19.6004 43.1999 19.2004 42.5999 19.0004 41.7999C18.8004 41.1999 18.6004 40.3999 18.4004 38.7999C18.4004 36.9999 18.4004 36.5999 18.4004 31.9999C18.4004 27.3999 18.4004 26.9999 18.4004 25.1999C18.4004 23.5999 18.8004 22.7999 19.0004 22.1999C19.4004 21.3999 19.6004 20.7999 20.2004 20.1999C20.8004 19.5999 21.4004 19.1999 22.2004 18.9999C22.8004 18.7999 23.6004 18.5999 25.2004 18.3999C27.0004 18.3999 27.6004 18.3999 32.0004 18.3999ZM32.0004 15.3999C27.4004 15.3999 27.0004 15.3999 25.2004 15.3999C23.4004 15.3999 22.2004 15.7999 21.2004 16.1999C20.2004 16.5999 19.2004 17.1999 18.2004 18.1999C17.2004 19.1999 16.8004 19.9999 16.2004 21.1999C15.8004 22.1999 15.6004 23.3999 15.4004 25.1999C15.4004 26.9999 15.4004 27.5999 15.4004 31.9999C15.4004 36.5999 15.4004 36.9999 15.4004 38.7999C15.4004 40.5999 15.8004 41.7999 16.2004 42.7999C16.6004 43.7999 17.2004 44.7999 18.2004 45.7999C19.2004 46.7999 20.0004 47.1999 21.2004 47.7999C22.2004 48.1999 23.4004 48.3999 25.2004 48.5999C27.0004 48.5999 27.6004 48.5999 32.0004 48.5999C36.4004 48.5999 37.0004 48.5999 38.8004 48.5999C40.6004 48.5999 41.8004 48.1999 42.8004 47.7999C43.8004 47.3999 44.8004 46.7999 45.8004 45.7999C46.8004 44.7999 47.2004 43.9999 47.8004 42.7999C48.2004 41.7999 48.4004 40.5999 48.6004 38.7999C48.6004 36.9999 48.6004 36.3999 48.6004 31.9999C48.6004 27.5999 48.6004 26.9999 48.6004 25.1999C48.6004 23.3999 48.2004 22.1999 47.8004 21.1999C47.4004 20.1999 46.8004 19.1999 45.8004 18.1999C44.8004 17.1999 44.0004 16.7999 42.8004 16.1999C41.8004 15.7999 40.6004 15.5999 38.8004 15.3999C37.0004 15.3999 36.6004 15.3999 32.0004 15.3999Z" fill="#FEFEFE"/>
  <path d="M32.0004 23.3999C27.2004 23.3999 23.4004 27.1999 23.4004 31.9999C23.4004 36.7999 27.2004 40.5999 32.0004 40.5999C36.8004 40.5999 40.6004 36.7999 40.6004 31.9999C40.6004 27.1999 36.8004 23.3999 32.0004 23.3999ZM32.0004 37.5999C29.0004 37.5999 26.4004 35.1999 26.4004 31.9999C26.4004 28.9999 28.8004 26.3999 32.0004 26.3999C35.0004 26.3999 37.6004 28.7999 37.6004 31.9999C37.6004 34.9999 35.0004 37.5999 32.0004 37.5999Z" fill="#FEFEFE"/>
  <path d="M40.8004 25.1999C41.905 25.1999 42.8004 24.3045 42.8004 23.1999C42.8004 22.0953 41.905 21.1999 40.8004 21.1999C39.6958 21.1999 38.8004 22.0953 38.8004 23.1999C38.8004 24.3045 39.6958 25.1999 40.8004 25.1999Z" fill="#FEFEFE"/>
</svg>