<svg xmlns="http://www.w3.org/2000/svg" width="18" height="18" viewBox="0 0 18 18" fill="none">
  <path d="M10.4523 12.5955C10.4171 12.5606 10.3695 12.541 10.3199 12.541C10.2703 12.541 10.2227 12.5606 10.1875 12.5955L7.46406 15.3189C6.20313 16.5799 4.075 16.7135 2.68281 15.3189C1.28828 13.9244 1.42188 11.7986 2.68281 10.5377L5.40625 7.81426C5.47891 7.7416 5.47891 7.62207 5.40625 7.54942L4.47344 6.6166C4.4382 6.58171 4.39061 6.56213 4.34102 6.56213C4.29142 6.56213 4.24383 6.58171 4.20859 6.6166L1.48516 9.34004C-0.497656 11.3229 -0.497656 14.5314 1.48516 16.5119C3.46797 18.4924 6.67656 18.4947 8.65703 16.5119L11.3805 13.7885C11.4531 13.7158 11.4531 13.5963 11.3805 13.5236L10.4523 12.5955ZM16.5133 1.48613C14.5305 -0.49668 11.3219 -0.49668 9.34141 1.48613L6.61563 4.20957C6.58073 4.24481 6.56116 4.2924 6.56116 4.34199C6.56116 4.39159 6.58073 4.43917 6.61563 4.47441L7.54609 5.40488C7.61875 5.47754 7.73828 5.47754 7.81094 5.40488L10.5344 2.68145C11.7953 1.42051 13.9234 1.28691 15.3156 2.68145C16.7102 4.07598 16.5766 6.20176 15.3156 7.4627L12.5922 10.1861C12.5573 10.2214 12.5377 10.269 12.5377 10.3186C12.5377 10.3681 12.5573 10.4157 12.5922 10.451L13.525 11.3838C13.5977 11.4564 13.7172 11.4564 13.7898 11.3838L16.5133 8.66035C18.4937 6.67754 18.4937 3.46895 16.5133 1.48613ZM11.2984 5.72598C11.2632 5.69108 11.2156 5.67151 11.166 5.67151C11.1164 5.67151 11.0688 5.69108 11.0336 5.72598L5.725 11.0322C5.69011 11.0675 5.67053 11.1151 5.67053 11.1646C5.67053 11.2142 5.69011 11.2618 5.725 11.2971L6.65313 12.2252C6.72578 12.2979 6.84531 12.2979 6.91797 12.2252L12.2242 6.91895C12.2969 6.84629 12.2969 6.72676 12.2242 6.6541L11.2984 5.72598Z" fill="#0D236E"/>
</svg>