
<svg width="72" height="58" viewBox="0 0 72 58" fill="none" xmlns="http://www.w3.org/2000/svg">
<rect x="7.47266" y="0.0869141" width="57.2308" height="57.2308" rx="28.6154" fill="#0D236E"/>
<rect x="13.8477" y="6.46143" width="44.3077" height="44.3077" rx="22.1538" fill="white"/>
<rect x="1.84615" y="19.4614" width="68.3077" height="20.3077" rx="1.84615" fill="#0D236E" stroke="white" stroke-width="3.69231"/>
<rect x="0.923828" y="20.8457" width="70.1538" height="17.5385" rx="3.69231" fill="#0D236E"/>
<path d="M8.64145 25.6162C8.44329 25.4095 8.34422 25.1639 8.34422 24.8796C8.34422 24.5953 8.44329 24.3541 8.64145 24.1559C8.84822 23.9492 9.09375 23.8458 9.37806 23.8458C9.66237 23.8458 9.9036 23.9492 10.1018 24.1559C10.3085 24.3541 10.4119 24.5953 10.4119 24.8796C10.4119 25.1639 10.3085 25.4095 10.1018 25.6162C9.9036 25.8144 9.66237 25.9135 9.37806 25.9135C9.09375 25.9135 8.84822 25.8144 8.64145 25.6162ZM9.13252 26.8827C9.94237 26.8827 10.3473 27.2316 10.3473 27.9295V32.1036C10.3473 32.3362 10.4033 32.5215 10.5153 32.6593C10.6273 32.7885 10.7996 32.8532 11.0322 32.8532C11.2648 32.8532 11.5319 32.7282 11.8334 32.4784L12.0661 32.7885C11.3768 33.4175 10.6876 33.7319 9.99837 33.7319C8.93868 33.7319 8.40883 33.0987 8.40883 31.8322V27.503C7.93498 27.6236 7.57314 27.8347 7.32329 28.1362L6.97437 27.7356C7.22422 27.4772 7.53868 27.2704 7.91775 27.1153C8.30545 26.9602 8.71037 26.8827 9.13252 26.8827Z" fill="white"/>
<path d="M13.5107 32.7585L14.4541 32.5V27.5505C14.4541 27.3265 14.4369 27.18 14.4024 27.1111C14.368 27.0336 14.2775 26.9647 14.1311 26.9044L13.4849 26.5296L13.5237 25.3665H20.5409C20.6012 26.2711 20.6314 27.1542 20.6314 28.0157L19.6751 28.0804L18.7575 26.9431L16.8061 26.8914V28.9979L19.5587 28.7653V30.7554L16.8061 30.4582V32.5388L18.9514 32.5L19.9464 31.3628L20.9027 31.4274C20.8683 32.332 20.8037 33.2151 20.7089 34.0767H13.5754L13.5107 32.7585ZM22.0664 32.836L22.8677 32.6034V29.476C22.8677 29.2865 22.8547 29.1659 22.8289 29.1142C22.803 29.0539 22.7341 28.9893 22.6221 28.9204L22.0535 28.6102L22.0923 27.641L22.3766 27.5893C23.5052 27.3653 24.3193 27.2447 24.819 27.2274C24.888 27.4084 24.944 27.6065 24.987 27.8219C25.5126 27.5807 25.939 27.417 26.2664 27.3308C26.6024 27.236 26.9169 27.1887 27.2098 27.1887C28.5797 27.1887 29.2646 28.0071 29.2646 29.644V32.177C29.2646 32.3579 29.2775 32.4785 29.3033 32.5388C29.3292 32.5991 29.4024 32.6637 29.523 32.7327L30.1433 33.0945L30.0917 34.0637H26.5249L26.4603 32.836L27.0935 32.6551V30.2127C27.0935 29.825 27.0806 29.5536 27.0547 29.3985C27.0289 29.2434 26.9557 29.1228 26.835 29.0367C26.723 28.9505 26.5206 28.9074 26.2277 28.9074C25.9175 28.9074 25.5255 28.9548 25.0517 29.0496V32.177C25.0517 32.3579 25.0646 32.4785 25.0904 32.5388C25.1163 32.5991 25.1852 32.6637 25.2972 32.7327L25.9304 33.0945L25.8787 34.0637H22.131L22.0664 32.836ZM33.6088 34.2447C32.7817 34.2447 32.1355 33.9345 31.6703 33.3142C31.2051 32.6939 30.9724 31.8625 30.9724 30.82C30.9724 29.6225 31.2869 28.7179 31.9158 28.1062C32.5534 27.4945 33.458 27.1887 34.6297 27.1887C34.6986 27.1887 34.9226 27.1973 35.3017 27.2145V26.4391C35.3017 26.2496 35.2888 26.1247 35.2629 26.0644C35.2371 26.004 35.1638 25.9394 35.0432 25.8705L34.4617 25.5733L34.5263 24.5911C35.3534 24.4447 35.9651 24.3456 36.3614 24.2939C36.7577 24.2336 37.0721 24.1991 37.3048 24.1905C37.3823 24.3887 37.4383 24.6127 37.4728 24.8625V32.2157C37.4728 32.3708 37.4857 32.4785 37.5115 32.5388C37.546 32.5991 37.6192 32.6594 37.7312 32.7197L38.2223 33.017L38.1706 33.8182C37.3263 34.0336 36.4992 34.1628 35.6894 34.2059C35.6291 34.0422 35.5688 33.844 35.5084 33.6114C34.9226 34.0336 34.2894 34.2447 33.6088 34.2447ZM34.3583 32.5905C34.6426 32.5905 34.9614 32.4957 35.3146 32.3062V28.9591C35.0561 28.8471 34.7244 28.7911 34.3195 28.7911C33.9921 28.7911 33.6777 28.8342 33.3761 28.9204C33.3072 29.084 33.2512 29.308 33.2081 29.5924C33.1737 29.8767 33.1564 30.1911 33.1564 30.5357C33.1564 31.2422 33.2512 31.7634 33.4408 32.0994C33.6389 32.4268 33.9448 32.5905 34.3583 32.5905ZM42.4191 34.2447C41.3249 34.2447 40.5064 33.9647 39.9637 33.4047C39.4295 32.8447 39.1624 31.9874 39.1624 30.833C39.1624 30.092 39.296 29.4459 39.5631 28.8945C39.8388 28.3431 40.2308 27.921 40.7391 27.628C41.2474 27.3351 41.8461 27.1887 42.5354 27.1887C44.7668 27.1887 45.8824 28.3431 45.8824 30.652C45.8824 31.7807 45.5766 32.6637 44.9649 33.3013C44.3618 33.9302 43.5132 34.2447 42.4191 34.2447ZM42.6258 32.7327C42.7981 32.7327 42.9489 32.7197 43.0781 32.6939C43.2074 32.6594 43.3452 32.6077 43.4917 32.5388C43.5434 32.3407 43.5864 32.0865 43.6209 31.7764C43.6554 31.4662 43.6726 31.169 43.6726 30.8847C43.6726 30.1868 43.5606 29.657 43.3366 29.2951C43.1212 28.9333 42.7981 28.7524 42.3674 28.7524C42.0831 28.7524 41.7944 28.7911 41.5015 28.8687C41.4412 28.9979 41.3938 29.209 41.3594 29.5019C41.3249 29.7862 41.3077 30.1136 41.3077 30.484C41.3077 31.2077 41.4197 31.7634 41.6437 32.1511C41.8763 32.5388 42.2037 32.7327 42.6258 32.7327ZM46.9775 32.849L47.7658 32.6164V29.476C47.7658 29.2865 47.7529 29.1659 47.727 29.1142C47.7012 29.0539 47.6322 28.9893 47.5202 28.9204L46.9516 28.6102L46.9904 27.641C47.1369 27.6065 47.2618 27.585 47.3652 27.5764C48.4076 27.361 49.1787 27.2447 49.6784 27.2274C49.7559 27.4514 49.8292 27.7314 49.8981 28.0674C50.415 27.6625 50.8544 27.3825 51.2162 27.2274H51.9529C51.9442 27.5548 51.9227 27.9124 51.8882 28.3C51.8538 28.6791 51.8107 28.985 51.759 29.2176C51.4489 29.2004 51.2206 29.1917 51.0741 29.1917C50.7122 29.1917 50.3375 29.2133 49.9498 29.2564V32.1899C49.9498 32.3708 49.9627 32.4914 49.9886 32.5517C50.0144 32.612 50.0833 32.6767 50.1953 32.7456L50.9707 33.1591L50.919 34.0767H47.0421L46.9775 32.849ZM55.3115 34.2964C54.6309 34.2964 53.8426 34.1757 52.9466 33.9345C52.9983 33.0902 53.0543 32.4656 53.1146 32.0607L53.8512 31.9185L54.6654 32.7844C54.9497 32.8705 55.2685 32.9136 55.6217 32.9136C55.8199 32.9136 55.9749 32.9007 56.0869 32.8748C56.1128 32.8059 56.1257 32.7111 56.1257 32.5905C56.1257 32.4871 56.0999 32.401 56.0482 32.332C56.0051 32.2631 55.9017 32.1813 55.738 32.0865C55.5743 31.9917 55.29 31.8453 54.8851 31.6471C54.3768 31.38 53.9891 31.1431 53.722 30.9364C53.4549 30.721 53.2611 30.5013 53.1405 30.2773C53.0285 30.0533 52.9725 29.7862 52.9725 29.476C52.9725 28.7868 53.2266 28.2397 53.7349 27.8348C54.2519 27.4299 54.9497 27.2274 55.8285 27.2274C56.1903 27.2274 56.5694 27.2705 56.9657 27.3567C57.3706 27.4342 57.7325 27.5419 58.0512 27.6797C58.0512 28.2397 58.0125 28.8644 57.9349 29.5536L57.2629 29.657L56.3971 28.7265C56.1731 28.6576 55.8457 28.6231 55.4149 28.6231C55.346 28.6231 55.2082 28.6317 55.0014 28.649C54.9755 28.7007 54.9626 28.7825 54.9626 28.8945C54.9626 29.0151 54.9971 29.1228 55.066 29.2176C55.1349 29.3037 55.2555 29.4028 55.4279 29.5148C55.6088 29.6182 55.8931 29.769 56.2808 29.9671C56.8494 30.2428 57.2759 30.484 57.5602 30.6908C57.8531 30.889 58.0555 31.0914 58.1675 31.2982C58.2882 31.505 58.3485 31.7548 58.3485 32.0477C58.3485 32.7542 58.0771 33.3056 57.5343 33.7019C57.0002 34.0982 56.2592 34.2964 55.3115 34.2964ZM62.8346 34.2317C61.8266 34.2317 61.0469 33.9259 60.4955 33.3142C59.9527 32.7025 59.6814 31.8582 59.6814 30.7813C59.6814 30.0317 59.8149 29.3899 60.082 28.8557C60.3491 28.313 60.7281 27.8994 61.2192 27.6151C61.7103 27.3308 62.2832 27.1887 62.938 27.1887C63.9115 27.1887 64.6567 27.4988 65.1737 28.1191C65.6992 28.7394 65.9491 29.6225 65.9232 30.7684L61.9946 31.492C62.1152 31.8539 62.2832 32.121 62.4986 32.2933C62.7226 32.457 63.0155 32.5388 63.3774 32.5388C63.6272 32.5388 63.9244 32.5044 64.2691 32.4354C64.6137 32.3579 64.9626 32.2545 65.3158 32.1253L65.6131 33.4047C65.2943 33.6459 64.8807 33.844 64.3724 33.9991C63.8641 34.1542 63.3515 34.2317 62.8346 34.2317ZM63.8038 29.6828C63.7866 29.3554 63.6918 29.1185 63.5195 28.972C63.3558 28.817 63.1232 28.7394 62.8217 28.7394C62.5718 28.7394 62.3349 28.7739 62.1109 28.8428C61.93 29.265 61.8481 29.7216 61.8654 30.2127L63.8038 29.6828Z" fill="white"/>
</svg>
