<svg xmlns="http://www.w3.org/2000/svg" width="64" height="64" viewBox="0 0 64 64" fill="none">
  <rect width="64" height="64" rx="32" fill="#FFFC00"/>
  <path d="M48.6884 42.2227C42.4398 39.1978 41.4438 34.5275 41.3995 34.1811C41.3459 33.7615 41.2851 33.4316 41.748 33.0048C42.1944 32.5924 44.1749 31.3666 44.7244 30.9831C45.6327 30.348 46.0327 29.714 45.7378 28.9345C45.5316 28.3953 45.0295 28.1922 44.5007 28.1922C44.3338 28.1928 44.1676 28.2114 44.0048 28.2479C43.0068 28.4644 42.0377 28.9644 41.4768 29.0995C41.4094 29.1169 41.3402 29.1262 41.2706 29.1273C40.9717 29.1273 40.8583 28.9943 40.8871 28.6345C40.9572 27.5438 41.1057 25.4148 40.9335 23.4261C40.6974 20.6899 39.8149 19.3342 38.7685 18.1352C38.2623 17.5537 35.9117 15.0557 31.3754 15.0557C26.8392 15.0557 24.4917 17.5537 23.9885 18.1279C22.939 19.327 22.0575 20.6827 21.8235 23.4189C21.6513 25.4076 21.806 27.5355 21.8699 28.6273C21.8905 28.9696 21.7854 29.1201 21.4864 29.1201C21.4168 29.1189 21.3476 29.1096 21.2802 29.0923C20.7204 28.9572 19.7513 28.4572 18.7533 28.2407C18.5905 28.2042 18.4242 28.1855 18.2574 28.185C17.7264 28.185 17.2264 28.3912 17.0202 28.9273C16.7254 29.7067 17.1233 30.3408 18.0347 30.9759C18.5842 31.3594 20.5647 32.5842 21.0111 32.9976C21.473 33.4244 21.4132 33.7543 21.3596 34.1739C21.3152 34.5255 20.3183 39.1957 14.0706 42.2155C13.7046 42.3928 13.0819 42.768 14.1799 43.3743C15.9037 44.3269 17.0512 44.2248 17.9429 44.7991C18.6997 45.2867 18.2522 46.3383 18.8028 46.7177C19.4791 47.1847 21.4781 46.6847 24.0607 47.5373C26.2257 48.2507 27.5413 50.2663 31.3806 50.2663C35.2199 50.2663 36.5736 48.2415 38.7004 47.5373C41.2779 46.6847 43.281 47.1847 43.9584 46.7177C44.5079 46.3383 44.0615 45.2867 44.8182 44.7991C45.71 44.2248 46.8564 44.3269 48.5812 43.3743C49.6771 42.7753 49.0544 42.4 48.6884 42.2227Z" fill="#FEFEFE"/>
  <path d="M51.4064 41.8669C51.126 41.1039 50.5919 40.6957 49.9837 40.3575C49.8692 40.2905 49.7641 40.2369 49.6744 40.1957C49.4929 40.1018 49.3074 40.0111 49.1228 39.9152C47.2269 38.91 45.7464 37.642 44.7196 36.1388C44.428 35.7156 44.175 35.2671 43.9639 34.7986C43.8762 34.548 43.8804 34.4058 43.9432 34.2759C44.0056 34.1758 44.0881 34.0898 44.1855 34.0233C44.5113 33.8078 44.8474 33.5892 45.0752 33.4418C45.4814 33.1789 45.8031 32.9707 46.0103 32.8232C46.7887 32.2789 47.3331 31.7005 47.6733 31.0541C47.9106 30.6075 48.0491 30.115 48.0791 29.6101C48.1092 29.1053 48.0302 28.5998 47.8475 28.1282C47.332 26.7715 46.0505 25.9292 44.4979 25.9292C44.1704 25.9288 43.8438 25.9634 43.5236 26.0323C43.4381 26.0508 43.3525 26.0704 43.269 26.092C43.2834 25.1642 43.2628 24.1848 43.1803 23.2208C42.8875 19.832 41.7009 18.0557 40.4637 16.6391C39.6715 15.7515 38.7383 15.0005 37.7018 14.4164C35.8244 13.3442 33.6954 12.7998 31.3747 12.7998C29.054 12.7998 26.9354 13.3442 25.0559 14.4164C24.0169 15.0006 23.0818 15.7531 22.2888 16.6432C21.0517 18.0598 19.865 19.8392 19.5722 23.2249C19.4898 24.1889 19.4691 25.1735 19.4825 26.0962C19.399 26.0745 19.3145 26.0549 19.2289 26.0364C18.9088 25.9675 18.5822 25.933 18.2547 25.9333C16.701 25.9333 15.4174 26.7756 14.904 28.1323C14.7205 28.6041 14.6407 29.1099 14.6701 29.6153C14.6994 30.1207 14.8372 30.6139 15.0741 31.0613C15.4154 31.7077 15.9597 32.2861 16.7381 32.8304C16.9443 32.9748 17.267 33.183 17.6732 33.449C17.8928 33.5913 18.2134 33.7995 18.5279 34.0078C18.6379 34.0789 18.7314 34.1728 18.8021 34.2831C18.8681 34.4181 18.8702 34.5635 18.7722 34.8315C18.5639 35.2902 18.3151 35.7294 18.0289 36.144C17.0247 37.6131 15.5876 38.8585 13.7524 39.8554C12.7802 40.3709 11.7699 40.7153 11.3431 41.8751C11.0214 42.7504 11.2317 43.7463 12.0493 44.5855C12.3493 44.8987 12.6973 45.1622 13.0803 45.366C13.877 45.8038 14.7242 46.1427 15.603 46.3753C15.7844 46.4221 15.9566 46.4991 16.1123 46.6031C16.4103 46.864 16.368 47.2567 16.7649 47.832C16.9642 48.1293 17.2173 48.3867 17.5113 48.5908C18.3444 49.1661 19.2805 49.2022 20.2723 49.2403C21.1682 49.2743 22.1837 49.3135 23.3435 49.696C23.8239 49.8548 24.3229 50.162 24.9013 50.5208C26.29 51.3744 28.1911 52.5425 31.3727 52.5425C34.5542 52.5425 36.4687 51.3682 37.8678 50.5115C38.442 50.1589 38.9379 49.8548 39.4049 49.7001C40.5648 49.3166 41.5803 49.2785 42.4762 49.2445C43.468 49.2063 44.4041 49.1702 45.2371 48.5949C45.5853 48.3521 45.8754 48.0353 46.0866 47.6671C46.3722 47.1815 46.365 46.8423 46.633 46.6052C46.7792 46.5061 46.9408 46.4322 47.1114 46.3866C48.0023 46.1534 48.861 45.8113 49.6682 45.368C50.075 45.1498 50.4412 44.8631 50.7507 44.5206L50.761 44.5082C51.5281 43.6875 51.7208 42.7205 51.4064 41.8669ZM48.5785 43.3865C46.8537 44.3391 45.7072 44.237 44.8154 44.8113C44.0577 45.2989 44.5061 46.3505 43.9556 46.7299C43.2793 47.197 41.2803 46.6969 38.6977 47.5495C36.5677 48.2537 35.2089 50.2785 31.3778 50.2785C27.5468 50.2785 26.2199 48.2578 24.0549 47.5444C21.4775 46.6918 19.4743 47.1918 18.797 46.7248C18.2475 46.3454 18.6939 45.2938 17.9371 44.8061C17.0443 44.2319 15.8979 44.334 14.1741 43.3865C13.0761 42.7803 13.6988 42.405 14.0648 42.2277C20.3125 39.2028 21.3094 34.5326 21.3538 34.1862C21.4074 33.7666 21.4672 33.4367 21.0053 33.0098C20.5589 32.5974 18.5784 31.3716 18.0289 30.9881C17.1196 30.353 16.7196 29.719 17.0144 28.9396C17.2206 28.4004 17.7237 28.1973 18.2516 28.1973C18.4184 28.1978 18.5847 28.2165 18.7475 28.253C19.7454 28.4695 20.7146 28.9695 21.2744 29.1045C21.3418 29.1218 21.411 29.1312 21.4806 29.1324C21.7795 29.1324 21.8847 28.9818 21.8641 28.6396C21.8002 27.5478 21.6455 25.4199 21.8177 23.4311C22.0538 20.6949 22.9353 19.3392 23.9827 18.1402C24.4858 17.5639 26.8498 15.0659 31.3706 15.0659C35.8914 15.0659 38.2616 17.5536 38.7647 18.1278C39.8132 19.3269 40.6957 20.6826 40.9297 23.4188C41.1019 25.4075 40.9534 27.5364 40.8833 28.6272C40.8596 28.987 40.9679 29.12 41.2669 29.12C41.3364 29.1189 41.4057 29.1095 41.473 29.0922C42.0339 28.9571 43.003 28.4571 44.001 28.2406C44.1638 28.2041 44.33 28.1854 44.4969 28.1849C45.0278 28.1849 45.5278 28.3911 45.734 28.9272C46.0289 29.7066 45.6309 30.3407 44.7206 30.9757C44.1711 31.3593 42.1906 32.584 41.7442 32.9975C41.2813 33.4243 41.3421 33.7542 41.3957 34.1738C41.4401 34.5254 42.436 39.1956 48.6847 42.2153C49.0537 42.3999 49.6764 42.7751 48.5785 43.3865Z" fill="#030303"/>
</svg>