<svg xmlns="http://www.w3.org/2000/svg" width="64" height="64" viewBox="0 0 64 64" fill="none">
  <rect width="64" height="64" rx="32" fill="#030303"/>
  <path d="M40.922 25.772C43.8029 27.8387 47.3322 29.0547 51.144 29.0547V21.6936C50.4226 21.6937 49.7031 21.6182 48.9973 21.4682V27.2624C45.1858 27.2624 41.657 26.0464 38.7753 23.9798V39.0018C38.7753 46.5165 32.7051 52.608 25.2175 52.608C22.4237 52.608 19.827 51.7603 17.6699 50.3066C20.1319 52.8329 23.5653 54.4001 27.3637 54.4001C34.8518 54.4001 40.9223 48.3086 40.9223 40.7936V25.772H40.922ZM43.5702 18.3455C42.0979 16.7312 41.1312 14.6452 40.922 12.3389V11.3921H38.8877C39.3998 14.3234 41.1464 16.8276 43.5702 18.3455ZM22.4058 44.54C21.5832 43.4576 21.1387 42.1335 21.1407 40.7721C21.1407 37.3351 23.9172 34.5484 27.3426 34.5484C27.981 34.5482 28.6156 34.6463 29.2239 34.84V27.3144C28.513 27.2166 27.7954 27.1751 27.0782 27.1903V33.0479C26.4693 32.8542 25.8345 32.7558 25.1959 32.7564C21.7705 32.7564 18.9942 35.5428 18.9942 38.9802C18.9942 41.4107 20.3819 43.515 22.4058 44.54Z" fill="#FF004F"/>
  <path d="M38.7762 23.9797C41.6579 26.0463 45.1867 27.2623 48.9982 27.2623V21.468C46.8706 21.0132 44.9872 19.8974 43.571 18.3455C41.1471 16.8275 39.4007 14.3232 38.8886 11.3921H33.5451V40.7933C33.533 44.2209 30.7613 46.9962 27.3432 46.9962C25.3289 46.9962 23.5395 46.0327 22.4062 44.54C20.3825 43.515 18.9947 41.4106 18.9947 38.9804C18.9947 35.5433 21.7711 32.7566 25.1965 32.7566C25.8528 32.7566 26.4854 32.8591 27.0787 33.0481V27.1905C19.7227 27.343 13.8066 33.375 13.8066 40.7934C13.8066 44.4967 15.2799 47.8538 17.6709 50.3068C19.828 51.7603 22.4247 52.6081 25.2185 52.6081C32.7063 52.6081 38.7764 46.5164 38.7764 39.0018V23.9797H38.7762Z" fill="#FEFEFE"/>
  <path d="M48.9982 21.468V19.9013C47.0797 19.9042 45.1988 19.365 43.5711 18.3453C45.012 19.9285 46.9094 21.0201 48.9982 21.468ZM38.8886 11.3921C38.8398 11.1119 38.8023 10.83 38.7762 10.5469V9.6001H31.3983V39.0016C31.3865 42.4287 28.6149 45.2041 25.1965 45.2041C24.1929 45.2041 23.2454 44.965 22.4063 44.5402C23.5396 46.0326 25.329 46.996 27.3432 46.996C30.761 46.996 33.5332 44.221 33.5451 40.7934V11.3921H38.8886ZM27.0791 27.1904V25.5226C26.4626 25.438 25.841 25.3956 25.2187 25.3959C17.7304 25.3957 11.6602 31.4875 11.6602 39.0016C11.6602 43.7125 14.0459 47.8643 17.6711 50.3064C15.2801 47.8537 13.8068 44.4963 13.8068 40.7933C13.8068 33.3749 19.7227 27.343 27.0791 27.1904Z" fill="#00F2EA"/>
</svg>