<svg xmlns="http://www.w3.org/2000/svg" width="28" height="28" viewBox="0 0 28 28" fill="none">
  <path d="M24.5 6.97689C20.615 6.59189 16.7067 6.39355 12.81 6.39355C10.5 6.39355 8.19 6.51022 5.88 6.74356L3.5 6.97689" stroke="#BA1A1A" stroke-width="1.5" stroke-linecap="round" stroke-linejoin="round"/>
  <path d="M9.91602 5.7985L10.1727 4.27016C10.3593 3.16183 10.4993 2.3335 12.471 2.3335H15.5277C17.4994 2.3335 17.651 3.2085 17.826 4.28183L18.0827 5.7985" stroke="#BA1A1A" stroke-width="1.5" stroke-linecap="round" stroke-linejoin="round"/>
  <path d="M21.9911 10.6636L21.2328 22.4119C21.1045 24.2436 20.9995 25.6669 17.7445 25.6669H10.2545C6.99948 25.6669 6.89448 24.2436 6.76615 22.4119L6.00781 10.6636" stroke="#BA1A1A" stroke-width="1.5" stroke-linecap="round" stroke-linejoin="round"/>
  <path d="M12.0508 19.25H15.9358" stroke="#BA1A1A" stroke-width="1.5" stroke-linecap="round" stroke-linejoin="round"/>
  <path d="M11.084 14.5835H16.9173" stroke="#BA1A1A" stroke-width="1.5" stroke-linecap="round" stroke-linejoin="round"/>
</svg>